####
#
# OBJ File Generated by Meshlab
#
####
# Object me10.obj
#
# Vertices: 6
# Faces: 8
#
####
vn 2.741295 0.135753 1.233849
v 0.118009 -0.022822 0.334868
vn -0.144680 1.019559 1.584136
v 0.003017 0.039217 0.411298
vn 0.620782 -1.580833 -0.844014
v 0.057140 -0.162119 0.221540
vn 1.290932 1.541465 -1.799348
v 0.068920 0.033834 0.197713
vn -1.111484 -1.231437 0.787197
v -0.077604 -0.139865 0.347856
vn -1.528832 0.994093 -1.218514
v -0.077144 0.027446 0.206474
# 6 vertices, 0 vertices normals

f 1//1 2//2 5//5
f 3//3 1//1 5//5
f 6//6 2//2 4//4
f 3//3 4//4 1//1
f 6//6 3//3 5//5
f 2//2 6//6 5//5
f 3//3 6//6 4//4
f 1//1 4//4 2//2
# 8 faces, 0 coords texture

# End of File
